# xmcd CD database file
#
# Track frame offsets:
#	150
#	13977
#	32697
#	47762
#	65727
#	82072
#	95212
#	110440
#	127245
#	146840
#
# Disc length: 2202 seconds
#
# Revision: 1
# Processed by: cddbd v1.5.1PL0 Copyright (c) Steve Scherf et al.
# Submitted via: CDex 1.50
#
DISCID=9b08980a
DTITLE=Stefanie Werger - Sehnsucht nach Florenz
DYEAR=1987
DGENRE=Austro Pop
TTITLE0=manchmal bin ich müde
TTITLE1=Sehnsucht nach Florenz
TTITLE2=Die Spinne
TTITLE3=Insel ohne Namen
TTITLE4=Einfach so
TTITLE5=Krähenfüsse
TTITLE6=Unbefangen
TTITLE7=Lass es gut sein
TTITLE8=Nacht der Tränen
TTITLE9=Immer noch Du
EXTD=YEAR: 1987
EXTT0=
EXTT1=
EXTT2=
EXTT3=
EXTT4=
EXTT5=
EXTT6=
EXTT7=
EXTT8=
EXTT9=
PLAYORDER=
